<?xml version="1.0" standalone="no"?>
<!DOCTYPE svg PUBLIC "-//W3C//DTD SVG 20010904//EN"
 "http://www.w3.org/TR/2001/REC-SVG-20010904/DTD/svg10.dtd">
<svg version="1.0" xmlns="http://www.w3.org/2000/svg"
 width="250.000000pt" height="250.000000pt" viewBox="0 0 250.000000 250.000000"
 preserveAspectRatio="xMidYMid meet">
<metadata>
Created by potrace 1.11, written by Peter Selinger 2001-2013
</metadata>
<g transform="translate(0.000000,250.000000) scale(0.100000,-0.100000)"
fill="#000000" stroke="none">
<path d="M500 2160 c-131 -35 -219 -84 -359 -196 -10 -8 -2 -57 10 -65 25 -16
44 -9 99 36 272 223 658 211 929 -29 28 -25 56 -46 61 -46 14 0 50 38 50 52 0
22 -117 122 -192 165 -40 23 -109 54 -153 69 -69 24 -99 28 -225 31 -121 3
-157 0 -220 -17z"/>
<path d="M620 1940 c-99 -15 -196 -59 -269 -122 -32 -28 -41 -64 -19 -86 19
-19 40 -14 87 23 100 79 236 117 351 97 81 -15 172 -58 233 -110 27 -23 52
-42 57 -42 4 0 18 8 31 19 20 16 22 22 12 44 -25 55 -169 145 -264 166 -73 15
-161 20 -219 11z"/>
<path d="M634 1709 c-22 -5 -65 -24 -95 -42 -48 -29 -54 -36 -54 -66 0 -56 23
-60 92 -17 101 62 193 58 285 -15 34 -27 42 -30 64 -21 33 16 31 54 -3 88 -64
61 -197 95 -289 73z"/>
<path d="M1680 1560 c-103 -13 -188 -38 -280 -82 -70 -34 -100 -57 -173 -129
l-87 -89 -444 0 c-479 0 -471 1 -464 -52 2 -16 75 -90 226 -227 l222 -203 0
-47 c0 -46 -1 -47 -28 -43 -25 3 -40 -9 -128 -105 -264 -287 -282 -310 -264
-343 20 -38 62 -26 109 33 24 28 102 117 174 197 l132 144 5 -224 c3 -124 7
-226 8 -227 6 -8 60 -1 70 9 9 9 12 135 12 505 l0 493 147 0 147 0 -25 -27
c-209 -229 -226 -252 -197 -281 32 -32 55 -14 225 176 303 338 325 356 498
408 79 23 108 27 235 28 171 1 263 -16 383 -72 86 -39 109 -37 115 10 4 32
-31 59 -120 92 -132 50 -353 75 -498 56z m-1000 -520 c0 -71 -2 -130 -5 -130
-4 0 -155 136 -275 246 -12 12 8 14 133 14 l147 0 0 -130z"/>
<path d="M1187 883 c-4 -3 -7 -162 -7 -353 0 -256 3 -349 12 -358 18 -18 56
-14 68 7 13 26 14 650 0 685 -7 20 -17 26 -38 26 -16 0 -32 -3 -35 -7z"/>
<path d="M1682 718 c-9 -9 -12 -84 -12 -274 0 -254 1 -263 20 -269 11 -3 29
-3 40 0 19 6 20 15 20 269 0 269 -2 286 -40 286 -9 0 -21 -5 -28 -12z"/>
<path d="M2165 468 c-3 -8 -4 -77 -3 -153 l3 -140 35 0 35 0 0 150 0 150 -33
3 c-20 2 -34 -2 -37 -10z"/>
</g>
</svg>
